<?xml version="1.0" standalone="no"?>
<!DOCTYPE svg PUBLIC "-//W3C//DTD SVG 20010904//EN"
 "http://www.w3.org/TR/2001/REC-SVG-20010904/DTD/svg10.dtd">
<svg version="1.0" xmlns="http://www.w3.org/2000/svg"
 width="102.000000pt" height="102.000000pt" viewBox="0 0 102.000000 102.000000"
 preserveAspectRatio="xMidYMid meet">
<metadata>
Created by potrace 1.11, written by Peter Selinger 2001-2013
</metadata>
<g transform="translate(0.000000,102.000000) scale(0.100000,-0.100000)"
fill="#000000" stroke="none">
<path d="M562 1006 c-12 -6 -24 -18 -27 -26 -3 -8 -20 -25 -37 -37 -18 -12
-53 -40 -78 -62 -25 -22 -53 -41 -62 -41 -9 0 -19 -4 -22 -9 -3 -4 -65 -12
-138 -16 -73 -5 -135 -9 -138 -10 -24 -8 -40 -19 -40 -28 0 -6 25 -69 56 -141
52 -120 56 -133 50 -183 -3 -29 -10 -61 -15 -71 -8 -14 -33 -94 -56 -179 -4
-15 1 -26 16 -37 12 -8 26 -13 30 -11 4 3 63 5 130 5 135 1 195 -11 251 -51
18 -13 51 -33 73 -44 22 -11 51 -28 65 -37 31 -21 69 -13 74 16 3 11 10 50 16
86 31 171 32 173 74 218 23 24 64 60 91 80 112 82 125 96 118 121 -3 12 -12
21 -19 21 -8 0 -14 3 -14 8 0 4 -27 22 -60 40 -33 18 -62 37 -65 42 -3 5 -20
16 -38 25 -46 23 -60 36 -79 75 -26 54 -78 191 -78 206 0 13 -39 55 -49 53 -3
-1 -16 -6 -29 -13z"/>
</g>
</svg>
